# xmcd
#
# Track frame offsets: 
#        150
#        15793
#        30969
#        47371
#        64170
#        80273
#        94697
#        116728
#        148880
#
# Disc length: 2219 seconds
#
# Revision: 0
# Processed by: cddbd v1.5.2PL0 Copyright (c) Steve Scherf et al.
# Submitted via: ExactAudioCopy v1.1
#
DISCID=6308a909
DTITLE=Mick Clarke - West Coast Connection
DYEAR=1988
DGENRE=Electric Blues
TTITLE0=Hard Times
TTITLE1=Madison Blues
TTITLE2=Ain't That the Truth
TTITLE3=Mona
TTITLE4=You Don't Have To Cry
TTITLE5=Guitar Boogie
TTITLE6=Walking Blues
TTITLE7=Mean Old World
TTITLE8=Nothin' But A Fool
EXTD=
EXTT0=
EXTT1=
EXTT2=
EXTT3=
EXTT4=
EXTT5=
EXTT6=
EXTT7=
EXTT8=
PLAYORDER=
